M48
METRIC,LZ,000.000
;FILE_FORMAT=3:3
;TYPE=PLATED
;Layer: PTH_Through
;EasyEDA v6.5.51, 2026-08-24 01:43:52
;7d7e8a842f4b4f23a7bdc32a67f4f4f9,1e612b17a94d4a96afa68f34b5e7b55f,10
;Gerber Generator version 0.2
;Holesize 1 = 0.306 mm
T01C0.306
;Holesize 2 = 0.762 mm
T02C0.762
;Holesize 3 = 0.901 mm
T03C0.901
;Holesize 4 = 0.915 mm
T04C0.915
;Holesize 5 = 1.021 mm
T05C1.021
;Holesize 6 = 1.101 mm
T06C1.101
;Holesize 7 = 1.200 mm
T07C1.200
%
G05
G90
T01
X026231Y-067412
X009852Y-068563
X016713Y-049337
X023241Y-064957
T02
X031623Y-142370G85X031623Y-142364
X031623Y-134747
X031750Y-127511G85X031750Y-127505
X031750Y-119888
T03
X023241Y-053959
X023241Y-051959
X036830Y-045990
X036830Y-047990
X023241Y-047990
X023241Y-045990
X043942Y-045990
X043942Y-047990
T04
X048641Y-091948
X041021Y-091948
X048514Y-111760
X040894Y-111760
X044831Y-097917
X044831Y-105537
X034544Y-097917
X034544Y-105537
X054991Y-098044
X054991Y-105664
X026797Y-085979
X026797Y-088519
X026797Y-091059
X026797Y-093599
X026797Y-096139
X026797Y-098679
X026797Y-101219
X026797Y-103759
X026797Y-106299
X026797Y-108839
X026797Y-111379
X026797Y-113919
X026797Y-116459
X026797Y-118999
X026797Y-121539
X026797Y-124079
X026797Y-126619
X026797Y-129159
X026797Y-131699
X026797Y-134239
X026797Y-136779
X026797Y-139319
X003937Y-139319
X003937Y-136779
X003937Y-134239
X003937Y-131699
X003937Y-129159
X003937Y-126619
X003937Y-124079
X003937Y-121539
X003937Y-118999
X003937Y-116459
X003937Y-113919
X003937Y-111379
X003937Y-108839
X003937Y-106299
X003937Y-103759
X003937Y-101219
X003937Y-098679
X003937Y-096139
X003937Y-093599
X003937Y-091059
X003937Y-088519
X003937Y-085979
X057912Y-116800
X057912Y-114300
X057912Y-111800
T05
X020574Y-144907
X018034Y-144907
X015494Y-144907
X012954Y-144907
X010414Y-144907
X007874Y-144907
T06
X011303Y-068961
X011303Y-066421
X011303Y-063881
X011303Y-061341
X007239Y-040132
X009779Y-040132
X012319Y-040132
X021730Y-038810
X024270Y-038810
X021730Y-036270
X024270Y-036270
X021730Y-033730
X024270Y-033730
X021730Y-031190
X024270Y-031190
X040894Y-058420
X043434Y-058420
X045974Y-058420
X048514Y-058420
X063627Y-047117
X061087Y-047117
X058547Y-047117
X045270Y-038810
X042730Y-038810
X045270Y-036270
X042730Y-036270
X045270Y-033730
X042730Y-033730
X045270Y-031190
X042730Y-031190
T07
X037270Y-122387
X040440Y-122387
X048460Y-122387
X051630Y-122387
X037270Y-145837
X051630Y-145837
M30
